# xmcd CD database file
#
# Track frame offsets:
#	150
#	14367
#	30740
#	39725
#	51072
#	62847
#	79332
#	89105
#	107902
#	128722
#	138885
#	151397
#	166237
#	176912
#	189387
#	207255
#	221347
#	228752
#	243307
#	257330
#	266477
#	276790
#	293222
#
# Disc length: 4120 seconds
#
# Revision: 0
# Processed by: cddbd v1.5.1PL0 Copyright (c) Steve Scherf et al.
# Submitted via: CDex 1.51
#
DISCID=48101617
DTITLE=Robbie Rhodes - Blue Clover Man
DYEAR=2002
DGENRE=Jazz
TTITLE0=Maple Leaf Rag
TTITLE1=Arkansas Blues and Michigan Water Blues
TTITLE2=Last Nught On The Back Porch
TTITLE3=Echo of Spring
TTITLE4=Dusky Stevedore
TTITLE5=Throwing Out Fred
TTITLE6=Goofus
TTITLE7=Blue Clover Man
TTITLE8=The Japanese Sandman
TTITLE9=Canadian Capers
TTITLE10=Red Lips, Kiss My Blues Away
TTITLE11=The Jefferson Davis
TTITLE12=Superstitious Blues
TTITLE13=Yes! We Have No Bananas!
TTITLE14=The Pearls
TTITLE15=The Crazy Otto
TTITLE16=I Double Dare You
TTITLE17=Triangle Jazz Blues
TTITLE18=Florida Blues
TTITLE19=What a Girl! What a Night!
TTITLE20=Looking At The World Through Rose Colored Glasses
TTITLE21=Blue Goose Rag
TTITLE22=Bees Knees
EXTD=YEAR: 2002
EXTT0=
EXTT1=
EXTT2=
EXTT3=
EXTT4=
EXTT5=
EXTT6=
EXTT7=
EXTT8=
EXTT9=
EXTT10=
EXTT11=
EXTT12=
EXTT13=
EXTT14=
EXTT15=
EXTT16=
EXTT17=
EXTT18=
EXTT19=
EXTT20=
EXTT21=
EXTT22=
PLAYORDER=
